<svg width="64" height="64" viewBox="0 0 64 64" fill="none" xmlns="http://www.w3.org/2000/svg">
<rect width="64" height="64" rx="8" fill="#336CDA"/>
<path d="M22.1391 29.0564C23.1529 30.1824 24.4087 30.7847 25.9066 30.8632C27.4045 30.9417 28.7164 30.474 29.8424 29.4602C30.9684 28.4463 31.5706 27.1905 31.6491 25.6926C31.7276 24.1947 31.2599 22.8828 30.2461 21.7568C29.2323 20.6309 27.9764 20.0286 26.4785 19.9501C24.9807 19.8716 23.6687 20.3393 22.5428 21.3531C21.4168 22.367 20.8146 23.6228 20.7361 25.1207C20.6576 26.6185 21.1252 27.9305 22.1391 29.0564ZM18.0855 32.7062C16.0579 30.4543 15.1225 27.8304 15.2795 24.8347C15.4365 21.839 16.641 19.3273 18.893 17.2996C21.1449 15.2719 23.7688 14.3366 26.7645 14.4936C29.7602 14.6506 32.2719 15.8551 34.2996 18.107C35.942 19.9311 36.8588 21.991 37.0501 24.2866C37.2413 26.5822 36.8142 28.6892 35.7687 30.6076L45.9577 41.9236L45.692 46.995L36.0292 47.1323L35.6562 41.3516L30.5207 41.0824L30.7898 35.9469L30.364 35.474C28.2357 36.3709 26.0475 36.5673 23.7995 36.0633C21.5515 35.5593 19.6468 34.4403 18.0855 32.7062Z" fill="white"/>
</svg>
