<svg width="500" height="150" viewBox="0 0 500 150" fill="none" xmlns="http://www.w3.org/2000/svg">
<g clip-path="url(#clip0_37_28)">
<rect width="500" height="150" rx="6" fill="white"/>
<path opacity="0.15" d="M1.50703 10.4214C3.33831 12.4553 5.60674 13.5431 8.31231 13.6849C11.0179 13.8267 13.3876 12.9819 15.4214 11.1506C17.4553 9.31936 18.5431 7.05093 18.6849 4.34535C18.8267 1.63977 17.9819 -0.729934 16.1507 -2.76377C14.3194 -4.79761 12.051 -5.88543 9.34538 -6.02722C6.6398 -6.16901 4.27009 -5.32427 2.23625 -3.493C0.202416 -1.66172 -0.8854 0.606708 -1.02719 3.31229C-1.16899 6.01787 -0.324245 8.38758 1.50703 10.4214ZM-5.81479 17.014C-9.47734 12.9463 -11.1668 8.20691 -10.8832 2.79575C-10.5996 -2.61541 -8.42402 -7.15226 -4.35634 -10.8148C-0.288665 -14.4774 4.45075 -16.1668 9.86191 -15.8833C15.2731 -15.5997 19.8099 -13.424 23.4725 -9.35637C26.4391 -6.06155 28.0952 -2.34087 28.4406 1.80566C28.7861 5.95219 28.0146 9.75803 26.1261 13.2232L44.5304 33.6633L44.0504 42.8236L26.5966 43.0716L25.9229 32.6299L16.6467 32.1438L17.1328 22.8675L16.3637 22.0133C12.5193 23.6334 8.56686 23.9883 4.5063 23.0778C0.445744 22.1674 -2.99462 20.1461 -5.81479 17.014Z" fill="#336CDA"/>
<path opacity="0.15" d="M54.0354 132.961C56.6972 132.325 58.7372 130.853 60.1552 128.544C61.5732 126.236 61.9641 123.751 61.328 121.089C60.6919 118.427 59.2195 116.387 56.9109 114.969C54.6024 113.551 52.1172 113.16 49.4553 113.796C46.7935 114.432 44.7535 115.905 43.3355 118.213C41.9175 120.522 41.5266 123.007 42.1627 125.669C42.7988 128.331 44.2712 130.371 46.5797 131.789C48.8883 133.207 51.3735 133.598 54.0354 132.961ZM56.3254 142.544C51.0017 143.816 46.0313 143.034 41.4141 140.198C36.797 137.362 33.8523 133.283 32.5801 127.959C31.3078 122.635 32.0897 117.665 34.9257 113.048C37.7617 108.43 41.8416 105.486 47.1653 104.214C51.4775 103.183 55.5371 103.507 59.3443 105.186C63.1514 106.865 66.1253 109.362 68.266 112.677L95.0175 106.284L102.834 111.085L94.7073 126.534L85.2142 122.134L80.3524 130.049L72.4373 125.187L71.3193 125.454C70.9044 129.605 69.3265 133.247 66.5856 136.378C63.8447 139.509 60.4247 141.564 56.3254 142.544Z" fill="#336CDA"/>
<path opacity="0.15" d="M166.035 79.9614C168.697 79.3253 170.737 77.853 172.155 75.5444C173.573 73.2358 173.964 70.7506 173.328 68.0888C172.692 65.4269 171.22 63.387 168.911 61.969C166.602 60.551 164.117 60.16 161.455 60.7962C158.793 61.4323 156.754 62.9046 155.336 65.2132C153.918 67.5218 153.527 70.007 154.163 72.6688C154.799 75.3307 156.271 77.3706 158.58 78.7886C160.888 80.2066 163.374 80.5976 166.035 79.9614ZM168.325 89.5441C163.002 90.8163 158.031 90.0344 153.414 87.1984C148.797 84.3624 145.852 80.2826 144.58 74.9589C143.308 69.6352 144.09 64.6648 146.926 60.0476C149.762 55.4305 153.842 52.4858 159.165 51.2135C163.477 50.183 167.537 50.5072 171.344 52.1862C175.151 53.8651 178.125 56.3622 180.266 59.6775L207.018 53.2845L214.834 58.0854L206.707 73.534L197.214 69.1338L192.352 77.0489L184.437 72.1872L183.319 72.4543C182.904 76.6055 181.327 80.2466 178.586 83.3778C175.845 86.509 172.425 88.5645 168.325 89.5441Z" fill="#336CDA"/>
<path opacity="0.15" d="M119.891 27.5596C122.59 28.0128 125.043 27.4533 127.249 25.8812C129.456 24.3091 130.786 22.1735 131.239 19.4745C131.692 16.7755 131.132 14.3227 129.56 12.1162C127.988 9.90967 125.853 8.57983 123.154 8.12668C120.455 7.67353 118.002 8.23301 115.795 9.80512C113.589 11.3772 112.259 13.5128 111.806 16.2118C111.353 18.9108 111.912 21.3636 113.484 23.5701C115.056 25.7767 117.192 27.1065 119.891 27.5596ZM118.26 37.2761C112.862 36.3698 108.59 33.7102 105.446 29.2971C102.302 24.8841 101.183 19.9785 102.089 14.5805C102.996 9.18244 105.655 4.91131 110.068 1.76708C114.481 -1.37714 119.387 -2.4961 124.785 -1.5898C129.157 -0.855699 132.769 1.02715 135.619 4.05874C138.469 7.09034 140.232 10.55 140.909 14.4379L168.034 18.992L173.357 26.4627L159.846 37.5147L152.823 29.7586L145.258 35.1487L139.868 27.5835L138.734 27.3932C136.732 31.0532 133.858 33.7898 130.113 35.603C126.367 37.4163 122.416 37.974 118.26 37.2761Z" fill="#336CDA"/>
<path opacity="0.15" d="M278.802 126.327C281.494 126.815 283.954 126.288 286.181 124.745C288.408 123.201 289.765 121.083 290.254 118.39C290.742 115.697 290.214 113.238 288.671 111.011C287.128 108.784 285.01 107.427 282.317 106.938C279.624 106.45 277.164 106.978 274.937 108.521C272.71 110.064 271.353 112.182 270.865 114.875C270.376 117.568 270.904 120.028 272.447 122.255C273.991 124.482 276.109 125.839 278.802 126.327ZM277.044 136.022C271.658 135.045 267.422 132.33 264.335 127.877C261.249 123.423 260.194 118.504 261.17 113.118C262.147 107.732 264.862 103.496 269.315 100.409C273.769 97.3226 278.688 96.2675 284.074 97.2439C288.437 98.0348 292.023 99.9645 294.833 103.033C297.644 106.101 299.362 109.584 299.989 113.48L327.052 118.386L332.277 125.926L318.624 136.801L311.702 128.954L304.068 134.246L298.776 126.611L297.645 126.406C295.596 130.04 292.687 132.739 288.918 134.503C285.149 136.267 281.191 136.774 277.044 136.022Z" fill="#336CDA"/>
<path opacity="0.15" d="M308.035 28.9614C310.697 28.3253 312.737 26.853 314.155 24.5444C315.573 22.2358 315.964 19.7506 315.328 17.0888C314.692 14.4269 313.22 12.387 310.911 10.969C308.602 9.55098 306.117 9.16004 303.455 9.79616C300.793 10.4323 298.754 11.9046 297.336 14.2132C295.918 16.5218 295.527 19.007 296.163 21.6688C296.799 24.3307 298.271 26.3706 300.58 27.7886C302.888 29.2066 305.374 29.5976 308.035 28.9614ZM310.325 38.5441C305.002 39.8163 300.031 39.0344 295.414 36.1984C290.797 33.3624 287.852 29.2826 286.58 23.9589C285.308 18.6352 286.09 13.6648 288.926 9.0476C291.762 4.43045 295.842 1.48576 301.165 0.213517C305.477 -0.816997 309.537 -0.492784 313.344 1.18615C317.151 2.86509 320.125 5.3622 322.266 8.67748L349.018 2.28448L356.834 7.08545L348.707 22.534L339.214 18.1338L334.352 26.0489L326.437 21.1872L325.319 21.4543C324.904 25.6055 323.327 29.2466 320.586 32.3778C317.845 35.509 314.425 37.5645 310.325 38.5441Z" fill="#336CDA"/>
<path opacity="0.15" d="M394.535 64.5733C397.205 65.1735 399.684 64.7491 401.974 63.3002C404.263 61.8513 405.708 59.7917 406.308 57.1215C406.908 54.4514 406.484 51.9716 405.035 49.6824C403.586 47.3931 401.526 45.9483 398.856 45.3481C396.186 44.7478 393.706 45.1722 391.417 46.6211C389.128 48.0701 387.683 50.1296 387.083 52.7998C386.483 55.47 386.907 57.9497 388.356 60.239C389.805 62.5283 391.864 63.973 394.535 64.5733ZM392.374 74.1859C387.033 72.9854 382.914 70.0959 380.016 65.5173C377.118 60.9387 376.27 55.9793 377.47 50.6389C378.671 45.2986 381.56 41.1795 386.139 38.2816C390.717 35.3837 395.677 34.535 401.017 35.7355C405.343 36.7079 408.846 38.7856 411.525 41.9687C414.205 45.1518 415.777 48.7028 416.24 52.6219L443.075 58.6543L447.981 66.4052L433.885 76.701L427.297 68.5719L419.448 73.5398L414.48 65.6908L413.359 65.4387C411.159 68.9836 408.14 71.5588 404.301 73.1642C400.461 74.7697 396.486 75.1102 392.374 74.1859Z" fill="#336CDA"/>
<path opacity="0.15" d="M474.028 137.31C476.458 138.57 478.964 138.791 481.547 137.972C484.129 137.153 486.05 135.529 487.31 133.099C488.57 130.67 488.791 128.164 487.972 125.581C487.153 122.999 485.529 121.077 483.099 119.817C480.67 118.558 478.164 118.337 475.581 119.156C472.999 119.975 471.077 121.599 469.817 124.028C468.558 126.458 468.337 128.964 469.156 131.547C469.975 134.129 471.599 136.051 474.028 137.31ZM469.493 146.057C464.634 143.537 461.385 139.695 459.748 134.529C458.11 129.364 458.551 124.352 461.071 119.493C463.591 114.634 467.433 111.385 472.598 109.748C477.764 108.11 482.776 108.551 487.635 111.071C491.571 113.112 494.43 116.013 496.211 119.773C497.993 123.533 498.609 127.367 498.06 131.275L522.477 143.936L525.249 152.68L508.998 159.051L504.695 149.513L495.84 152.321L493.033 143.466L492.013 142.937C488.984 145.805 485.409 147.528 481.287 148.103C477.166 148.679 473.234 147.997 469.493 146.057Z" fill="#336CDA"/>
<path d="M160.424 79.32C158.397 79.32 156.659 78.9893 155.208 78.328C153.779 77.6667 152.659 76.696 151.848 75.416C151.059 74.136 150.621 72.5467 150.536 70.648C150.515 69.7733 150.504 68.8347 150.504 67.832C150.504 66.8293 150.515 65.8693 150.536 64.952C150.621 63.096 151.069 61.528 151.88 60.248C152.691 58.9467 153.821 57.9653 155.272 57.304C156.723 56.6213 158.44 56.28 160.424 56.28C161.832 56.28 163.133 56.4613 164.328 56.824C165.523 57.1653 166.568 57.6773 167.464 58.36C168.36 59.0213 169.053 59.832 169.544 60.792C170.056 61.7307 170.323 62.7973 170.344 63.992C170.365 64.184 170.301 64.344 170.152 64.472C170.024 64.6 169.864 64.664 169.672 64.664H165.352C165.075 64.664 164.861 64.6107 164.712 64.504C164.563 64.376 164.435 64.152 164.328 63.832C164.029 62.7013 163.539 61.9333 162.856 61.528C162.195 61.1013 161.373 60.888 160.392 60.888C159.219 60.888 158.291 61.2187 157.608 61.88C156.925 62.52 156.552 63.5973 156.488 65.112C156.424 66.8613 156.424 68.6533 156.488 70.488C156.552 72.0027 156.925 73.0907 157.608 73.752C158.291 74.392 159.219 74.712 160.392 74.712C161.373 74.712 162.205 74.4987 162.888 74.072C163.571 73.6453 164.051 72.8773 164.328 71.768C164.413 71.448 164.531 71.2347 164.68 71.128C164.851 71 165.075 70.936 165.352 70.936H169.672C169.864 70.936 170.024 71 170.152 71.128C170.301 71.256 170.365 71.416 170.344 71.608C170.323 72.8027 170.056 73.88 169.544 74.84C169.053 75.7787 168.36 76.5893 167.464 77.272C166.568 77.9333 165.523 78.4453 164.328 78.808C163.133 79.1493 161.832 79.32 160.424 79.32ZM174.157 79C173.922 79 173.73 78.9253 173.581 78.776C173.431 78.6267 173.357 78.4347 173.357 78.2V63.16C173.357 62.9253 173.431 62.7333 173.581 62.584C173.73 62.4347 173.922 62.36 174.157 62.36H177.933C178.146 62.36 178.327 62.4347 178.477 62.584C178.647 62.7333 178.733 62.9253 178.733 63.16V78.2C178.733 78.4347 178.647 78.6267 178.477 78.776C178.327 78.9253 178.146 79 177.933 79H174.157ZM174.125 59.96C173.89 59.96 173.698 59.8853 173.549 59.736C173.399 59.5867 173.325 59.3947 173.325 59.16V56.312C173.325 56.0773 173.399 55.8853 173.549 55.736C173.698 55.5653 173.89 55.48 174.125 55.48H177.933C178.167 55.48 178.359 55.5653 178.509 55.736C178.679 55.8853 178.765 56.0773 178.765 56.312V59.16C178.765 59.3947 178.679 59.5867 178.509 59.736C178.359 59.8853 178.167 59.96 177.933 59.96H174.125ZM184.282 85.08C184.047 85.08 183.855 85.0053 183.706 84.856C183.556 84.7067 183.482 84.5147 183.482 84.28V63.16C183.482 62.9253 183.556 62.7333 183.706 62.584C183.855 62.4347 184.047 62.36 184.282 62.36H187.898C188.111 62.36 188.292 62.4347 188.442 62.584C188.612 62.7333 188.698 62.9253 188.698 63.16V64.344C189.188 63.6827 189.839 63.1387 190.65 62.712C191.46 62.264 192.463 62.04 193.658 62.04C194.724 62.04 195.663 62.2107 196.474 62.552C197.284 62.872 197.978 63.352 198.554 63.992C199.13 64.632 199.578 65.4107 199.898 66.328C200.239 67.2453 200.431 68.3013 200.474 69.496C200.495 69.9227 200.506 70.3173 200.506 70.68C200.506 71.0427 200.495 71.4373 200.474 71.864C200.431 73.016 200.25 74.0507 199.93 74.968C199.61 75.8853 199.162 76.664 198.586 77.304C198.01 77.944 197.306 78.4453 196.474 78.808C195.663 79.1493 194.724 79.32 193.658 79.32C192.612 79.32 191.695 79.1387 190.906 78.776C190.138 78.392 189.498 77.8587 188.986 77.176V84.28C188.986 84.5147 188.911 84.7067 188.762 84.856C188.612 85.0053 188.42 85.08 188.186 85.08H184.282ZM191.93 75.032C192.655 75.032 193.22 74.8827 193.626 74.584C194.031 74.2853 194.319 73.88 194.49 73.368C194.682 72.856 194.799 72.2907 194.842 71.672C194.884 71.0107 194.884 70.3493 194.842 69.688C194.799 69.0693 194.682 68.504 194.49 67.992C194.319 67.48 194.031 67.0747 193.626 66.776C193.22 66.4773 192.655 66.328 191.93 66.328C191.226 66.328 190.66 66.488 190.234 66.808C189.807 67.1067 189.498 67.5013 189.306 67.992C189.114 68.4827 189.007 69.016 188.986 69.592C188.964 69.9973 188.954 70.392 188.954 70.776C188.954 71.16 188.964 71.5653 188.986 71.992C189.007 72.5253 189.124 73.0267 189.338 73.496C189.551 73.944 189.871 74.3173 190.298 74.616C190.724 74.8933 191.268 75.032 191.93 75.032ZM204.469 79C204.235 79 204.043 78.9253 203.893 78.776C203.744 78.6267 203.669 78.4347 203.669 78.2V57.08C203.669 56.8453 203.744 56.6533 203.893 56.504C204.043 56.3547 204.235 56.28 204.469 56.28H208.565C208.8 56.28 208.992 56.3547 209.141 56.504C209.291 56.6533 209.365 56.8453 209.365 57.08V64.216C209.941 63.5547 210.645 63.032 211.477 62.648C212.331 62.2427 213.312 62.04 214.421 62.04C215.659 62.04 216.757 62.3173 217.717 62.872C218.699 63.4267 219.467 64.248 220.021 65.336C220.576 66.4027 220.853 67.7147 220.853 69.272V78.2C220.853 78.4347 220.779 78.6267 220.629 78.776C220.48 78.9253 220.288 79 220.053 79H215.925C215.712 79 215.52 78.9253 215.349 78.776C215.2 78.6267 215.125 78.4347 215.125 78.2V69.464C215.125 68.4613 214.88 67.6933 214.389 67.16C213.92 66.6053 213.216 66.328 212.277 66.328C211.403 66.328 210.699 66.6053 210.165 67.16C209.632 67.6933 209.365 68.4613 209.365 69.464V78.2C209.365 78.4347 209.291 78.6267 209.141 78.776C208.992 78.9253 208.8 79 208.565 79H204.469ZM232.162 79.32C229.644 79.32 227.639 78.6373 226.146 77.272C224.652 75.9067 223.874 73.88 223.81 71.192C223.81 71.0427 223.81 70.8507 223.81 70.616C223.81 70.3813 223.81 70.2 223.81 70.072C223.874 68.3867 224.247 66.9467 224.93 65.752C225.634 64.536 226.594 63.6187 227.81 63C229.047 62.36 230.487 62.04 232.13 62.04C234.007 62.04 235.554 62.4133 236.77 63.16C238.007 63.9067 238.935 64.92 239.554 66.2C240.172 67.48 240.482 68.9413 240.482 70.584V71.352C240.482 71.5867 240.396 71.7787 240.226 71.928C240.076 72.0773 239.895 72.152 239.682 72.152H229.442C229.442 72.1733 229.442 72.2053 229.442 72.248C229.442 72.2907 229.442 72.3333 229.442 72.376C229.463 72.9947 229.57 73.56 229.762 74.072C229.954 74.584 230.252 74.9893 230.658 75.288C231.063 75.5867 231.554 75.736 232.13 75.736C232.556 75.736 232.908 75.672 233.186 75.544C233.484 75.3947 233.73 75.2347 233.922 75.064C234.114 74.872 234.263 74.712 234.37 74.584C234.562 74.3707 234.711 74.2427 234.818 74.2C234.946 74.136 235.138 74.104 235.394 74.104H239.362C239.575 74.104 239.746 74.168 239.874 74.296C240.023 74.4027 240.087 74.5627 240.066 74.776C240.044 75.1387 239.863 75.576 239.522 76.088C239.18 76.6 238.679 77.112 238.018 77.624C237.378 78.1147 236.567 78.52 235.586 78.84C234.604 79.16 233.463 79.32 232.162 79.32ZM229.442 68.984H234.85V68.92C234.85 68.2373 234.743 67.64 234.53 67.128C234.338 66.616 234.028 66.2213 233.602 65.944C233.196 65.6667 232.706 65.528 232.13 65.528C231.554 65.528 231.063 65.6667 230.658 65.944C230.274 66.2213 229.975 66.616 229.762 67.128C229.548 67.64 229.442 68.2373 229.442 68.92V68.984ZM244.282 79C244.047 79 243.855 78.9253 243.706 78.776C243.556 78.6267 243.482 78.4347 243.482 78.2V63.16C243.482 62.9467 243.556 62.7653 243.706 62.616C243.855 62.4453 244.047 62.36 244.282 62.36H247.962C248.196 62.36 248.388 62.4453 248.538 62.616C248.687 62.7653 248.762 62.9467 248.762 63.16V64.44C249.338 63.7787 250.02 63.2667 250.81 62.904C251.62 62.5413 252.527 62.36 253.53 62.36H254.938C255.151 62.36 255.332 62.4347 255.482 62.584C255.652 62.7333 255.738 62.9253 255.738 63.16V66.456C255.738 66.6693 255.652 66.8613 255.482 67.032C255.332 67.1813 255.151 67.256 254.938 67.256H251.834C250.959 67.256 250.276 67.5013 249.786 67.992C249.316 68.4613 249.082 69.1333 249.082 70.008V78.2C249.082 78.4347 248.996 78.6267 248.826 78.776C248.676 78.9253 248.484 79 248.25 79H244.282Z" fill="#336CDA"/>
<path d="M273.512 81.08C273.171 81.08 272.904 80.984 272.712 80.792C272.541 80.6213 272.403 80.472 272.296 80.344L271.208 78.904C270.376 79.1813 269.427 79.32 268.36 79.32C266.397 79.32 264.691 79 263.24 78.36C261.811 77.72 260.68 76.76 259.848 75.48C259.037 74.1787 258.6 72.5573 258.536 70.616C258.515 69.6987 258.504 68.7813 258.504 67.864C258.504 66.9467 258.515 66.0187 258.536 65.08C258.6 63.16 259.048 61.5493 259.88 60.248C260.712 58.9253 261.853 57.9333 263.304 57.272C264.755 56.6107 266.44 56.28 268.36 56.28C270.301 56.28 271.997 56.6107 273.448 57.272C274.899 57.9333 276.04 58.9253 276.872 60.248C277.704 61.5493 278.152 63.16 278.216 65.08C278.259 66.0187 278.28 66.9467 278.28 67.864C278.28 68.7813 278.259 69.6987 278.216 70.616C278.088 73.2613 277.32 75.3093 275.912 76.76L278.248 80.088C278.269 80.1093 278.291 80.152 278.312 80.216C278.333 80.28 278.344 80.344 278.344 80.408C278.365 80.5787 278.312 80.728 278.184 80.856C278.056 81.0053 277.896 81.08 277.704 81.08H273.512ZM268.36 74.712C269.491 74.712 270.408 74.3707 271.112 73.688C271.837 73.0053 272.221 71.9173 272.264 70.424C272.307 69.4853 272.328 68.6 272.328 67.768C272.328 66.936 272.307 66.072 272.264 65.176C272.243 64.1733 272.061 63.3627 271.72 62.744C271.379 62.104 270.92 61.6347 270.344 61.336C269.768 61.0373 269.107 60.888 268.36 60.888C267.635 60.888 266.984 61.0373 266.408 61.336C265.832 61.6347 265.373 62.104 265.032 62.744C264.691 63.3627 264.509 64.1733 264.488 65.176C264.467 66.072 264.456 66.936 264.456 67.768C264.456 68.6 264.467 69.4853 264.488 70.424C264.531 71.9173 264.904 73.0053 265.608 73.688C266.333 74.3707 267.251 74.712 268.36 74.712ZM287.781 79.32C286.565 79.32 285.477 79.0427 284.517 78.488C283.579 77.9333 282.843 77.1227 282.309 76.056C281.776 74.968 281.509 73.6453 281.509 72.088V63.16C281.509 62.9253 281.584 62.7333 281.733 62.584C281.883 62.4347 282.075 62.36 282.309 62.36H286.309C286.544 62.36 286.736 62.4347 286.885 62.584C287.035 62.7333 287.109 62.9253 287.109 63.16V71.896C287.109 73.9867 288.048 75.032 289.925 75.032C290.8 75.032 291.493 74.7653 292.005 74.232C292.539 73.6773 292.805 72.8987 292.805 71.896V63.16C292.805 62.9253 292.88 62.7333 293.029 62.584C293.179 62.4347 293.371 62.36 293.605 62.36H297.605C297.84 62.36 298.032 62.4347 298.181 62.584C298.331 62.7333 298.405 62.9253 298.405 63.16V78.2C298.405 78.4347 298.331 78.6267 298.181 78.776C298.032 78.9253 297.84 79 297.605 79H293.893C293.68 79 293.488 78.9253 293.317 78.776C293.168 78.6267 293.093 78.4347 293.093 78.2V76.984C292.539 77.752 291.813 78.3387 290.917 78.744C290.043 79.128 288.997 79.32 287.781 79.32ZM309.849 79.32C307.332 79.32 305.327 78.6373 303.833 77.272C302.34 75.9067 301.561 73.88 301.497 71.192C301.497 71.0427 301.497 70.8507 301.497 70.616C301.497 70.3813 301.497 70.2 301.497 70.072C301.561 68.3867 301.935 66.9467 302.617 65.752C303.321 64.536 304.281 63.6187 305.497 63C306.735 62.36 308.175 62.04 309.817 62.04C311.695 62.04 313.241 62.4133 314.457 63.16C315.695 63.9067 316.623 64.92 317.241 66.2C317.86 67.48 318.169 68.9413 318.169 70.584V71.352C318.169 71.5867 318.084 71.7787 317.913 71.928C317.764 72.0773 317.583 72.152 317.369 72.152H307.129C307.129 72.1733 307.129 72.2053 307.129 72.248C307.129 72.2907 307.129 72.3333 307.129 72.376C307.151 72.9947 307.257 73.56 307.449 74.072C307.641 74.584 307.94 74.9893 308.345 75.288C308.751 75.5867 309.241 75.736 309.817 75.736C310.244 75.736 310.596 75.672 310.873 75.544C311.172 75.3947 311.417 75.2347 311.609 75.064C311.801 74.872 311.951 74.712 312.057 74.584C312.249 74.3707 312.399 74.2427 312.505 74.2C312.633 74.136 312.825 74.104 313.081 74.104H317.049C317.263 74.104 317.433 74.168 317.561 74.296C317.711 74.4027 317.775 74.5627 317.753 74.776C317.732 75.1387 317.551 75.576 317.209 76.088C316.868 76.6 316.367 77.112 315.705 77.624C315.065 78.1147 314.255 78.52 313.273 78.84C312.292 79.16 311.151 79.32 309.849 79.32ZM307.129 68.984H312.537V68.92C312.537 68.2373 312.431 67.64 312.217 67.128C312.025 66.616 311.716 66.2213 311.289 65.944C310.884 65.6667 310.393 65.528 309.817 65.528C309.241 65.528 308.751 65.6667 308.345 65.944C307.961 66.2213 307.663 66.616 307.449 67.128C307.236 67.64 307.129 68.2373 307.129 68.92V68.984ZM328.017 79.32C326.631 79.32 325.447 79.1707 324.465 78.872C323.505 78.552 322.716 78.168 322.097 77.72C321.5 77.272 321.052 76.8133 320.753 76.344C320.455 75.8533 320.295 75.4373 320.273 75.096C320.252 74.8613 320.327 74.6693 320.497 74.52C320.668 74.3493 320.849 74.264 321.041 74.264H324.689C324.753 74.264 324.807 74.2747 324.849 74.296C324.892 74.3173 324.956 74.36 325.041 74.424C325.319 74.5733 325.596 74.7653 325.873 75C326.151 75.2133 326.471 75.4053 326.833 75.576C327.196 75.7467 327.633 75.832 328.145 75.832C328.743 75.832 329.244 75.7147 329.649 75.48C330.055 75.2453 330.257 74.8933 330.257 74.424C330.257 74.0827 330.161 73.8053 329.969 73.592C329.777 73.3573 329.383 73.1333 328.785 72.92C328.209 72.7067 327.335 72.4933 326.161 72.28C325.052 72.024 324.081 71.6933 323.249 71.288C322.417 70.8613 321.777 70.3173 321.329 69.656C320.881 68.9733 320.657 68.152 320.657 67.192C320.657 66.3387 320.935 65.5173 321.489 64.728C322.044 63.9387 322.855 63.2987 323.921 62.808C324.988 62.296 326.3 62.04 327.857 62.04C329.095 62.04 330.161 62.1893 331.057 62.488C331.975 62.7653 332.743 63.128 333.361 63.576C334.001 64.024 334.481 64.4827 334.801 64.952C335.121 65.4213 335.292 65.848 335.313 66.232C335.335 66.4453 335.271 66.6373 335.121 66.808C334.972 66.9573 334.801 67.032 334.609 67.032H331.281C331.196 67.032 331.111 67.0213 331.025 67C330.94 66.9573 330.865 66.9147 330.801 66.872C330.545 66.744 330.289 66.5733 330.033 66.36C329.777 66.1467 329.479 65.9547 329.137 65.784C328.796 65.6133 328.369 65.528 327.857 65.528C327.281 65.528 326.833 65.656 326.513 65.912C326.193 66.168 326.033 66.4987 326.033 66.904C326.033 67.1813 326.119 67.4373 326.289 67.672C326.481 67.9067 326.855 68.12 327.409 68.312C327.985 68.504 328.871 68.7173 330.065 68.952C331.537 69.1867 332.711 69.5707 333.585 70.104C334.46 70.616 335.079 71.224 335.441 71.928C335.804 72.6107 335.985 73.336 335.985 74.104C335.985 75.128 335.676 76.0347 335.057 76.824C334.46 77.6133 333.564 78.232 332.369 78.68C331.175 79.1067 329.724 79.32 328.017 79.32ZM347.275 79C345.91 79 344.726 78.7867 343.723 78.36C342.742 77.912 341.984 77.2293 341.451 76.312C340.918 75.3733 340.651 74.168 340.651 72.696V66.552H338.155C337.92 66.552 337.718 66.4773 337.547 66.328C337.398 66.1787 337.323 65.9867 337.323 65.752V63.16C337.323 62.9253 337.398 62.7333 337.547 62.584C337.718 62.4347 337.92 62.36 338.155 62.36H340.651V57.08C340.651 56.8453 340.726 56.6533 340.875 56.504C341.046 56.3547 341.238 56.28 341.451 56.28H345.163C345.398 56.28 345.59 56.3547 345.739 56.504C345.888 56.6533 345.963 56.8453 345.963 57.08V62.36H349.963C350.198 62.36 350.39 62.4347 350.539 62.584C350.688 62.7333 350.763 62.9253 350.763 63.16V65.752C350.763 65.9867 350.688 66.1787 350.539 66.328C350.39 66.4773 350.198 66.552 349.963 66.552H345.963V72.248C345.963 72.9733 346.102 73.5493 346.379 73.976C346.656 74.4027 347.126 74.616 347.787 74.616H350.251C350.486 74.616 350.678 74.6907 350.827 74.84C350.976 74.9893 351.051 75.1813 351.051 75.416V78.2C351.051 78.4347 350.976 78.6267 350.827 78.776C350.678 78.9253 350.486 79 350.251 79H347.275Z" fill="#282828"/>
<path d="M181.068 98.12C180.332 98.12 179.72 97.984 179.232 97.712C178.752 97.44 178.388 97.06 178.14 96.572C177.892 96.084 177.756 95.516 177.732 94.868C177.724 94.54 177.72 94.188 177.72 93.812C177.72 93.436 177.724 93.076 177.732 92.732C177.756 92.084 177.892 91.516 178.14 91.028C178.388 90.54 178.752 90.16 179.232 89.888C179.72 89.616 180.332 89.48 181.068 89.48C181.62 89.48 182.104 89.556 182.52 89.708C182.936 89.86 183.28 90.064 183.552 90.32C183.832 90.576 184.044 90.864 184.188 91.184C184.332 91.496 184.412 91.82 184.428 92.156C184.436 92.228 184.412 92.288 184.356 92.336C184.308 92.384 184.248 92.408 184.176 92.408H183.516C183.444 92.408 183.38 92.388 183.324 92.348C183.276 92.308 183.24 92.236 183.216 92.132C183.08 91.508 182.824 91.08 182.448 90.848C182.08 90.616 181.616 90.5 181.056 90.5C180.416 90.5 179.908 90.684 179.532 91.052C179.156 91.412 178.952 91.992 178.92 92.792C178.896 93.448 178.896 94.12 178.92 94.808C178.952 95.608 179.156 96.192 179.532 96.56C179.908 96.92 180.416 97.1 181.056 97.1C181.616 97.1 182.08 96.984 182.448 96.752C182.824 96.52 183.08 96.092 183.216 95.468C183.24 95.364 183.276 95.292 183.324 95.252C183.38 95.212 183.444 95.192 183.516 95.192H184.176C184.248 95.192 184.308 95.216 184.356 95.264C184.412 95.312 184.436 95.372 184.428 95.444C184.412 95.78 184.332 96.108 184.188 96.428C184.044 96.74 183.832 97.024 183.552 97.28C183.28 97.536 182.936 97.74 182.52 97.892C182.104 98.044 181.62 98.12 181.068 98.12ZM186.156 98C186.076 98 186.008 97.976 185.952 97.928C185.904 97.872 185.88 97.804 185.88 97.724V92.048C185.88 91.968 185.904 91.9 185.952 91.844C186.008 91.788 186.076 91.76 186.156 91.76H186.708C186.788 91.76 186.856 91.788 186.912 91.844C186.968 91.9 186.996 91.968 186.996 92.048V92.576C187.156 92.304 187.376 92.1 187.656 91.964C187.936 91.828 188.272 91.76 188.664 91.76H189.144C189.224 91.76 189.288 91.788 189.336 91.844C189.384 91.892 189.408 91.956 189.408 92.036V92.528C189.408 92.608 189.384 92.672 189.336 92.72C189.288 92.768 189.224 92.792 189.144 92.792H188.424C187.992 92.792 187.652 92.92 187.404 93.176C187.156 93.424 187.032 93.764 187.032 94.196V97.724C187.032 97.804 187.004 97.872 186.948 97.928C186.892 97.976 186.824 98 186.744 98H186.156ZM190.715 98C190.635 98 190.567 97.976 190.511 97.928C190.463 97.872 190.439 97.804 190.439 97.724V92.036C190.439 91.956 190.463 91.892 190.511 91.844C190.567 91.788 190.635 91.76 190.715 91.76H191.291C191.371 91.76 191.435 91.788 191.483 91.844C191.531 91.892 191.555 91.956 191.555 92.036V97.724C191.555 97.804 191.531 97.872 191.483 97.928C191.435 97.976 191.371 98 191.291 98H190.715ZM190.619 90.596C190.539 90.596 190.471 90.572 190.415 90.524C190.367 90.468 190.343 90.4 190.343 90.32V89.672C190.343 89.592 190.367 89.528 190.415 89.48C190.471 89.424 190.539 89.396 190.619 89.396H191.375C191.455 89.396 191.519 89.424 191.567 89.48C191.623 89.528 191.651 89.592 191.651 89.672V90.32C191.651 90.4 191.623 90.468 191.567 90.524C191.519 90.572 191.455 90.596 191.375 90.596H190.619ZM193.75 100.28C193.67 100.28 193.602 100.252 193.546 100.196C193.498 100.148 193.474 100.084 193.474 100.004V92.036C193.474 91.956 193.498 91.892 193.546 91.844C193.602 91.788 193.67 91.76 193.75 91.76H194.302C194.382 91.76 194.446 91.788 194.494 91.844C194.55 91.892 194.578 91.956 194.578 92.036V92.564C194.77 92.3 195.026 92.08 195.346 91.904C195.666 91.728 196.066 91.64 196.546 91.64C196.994 91.64 197.374 91.716 197.686 91.868C198.006 92.02 198.266 92.228 198.466 92.492C198.674 92.756 198.83 93.056 198.934 93.392C199.038 93.728 199.094 94.088 199.102 94.472C199.11 94.6 199.114 94.736 199.114 94.88C199.114 95.024 199.11 95.16 199.102 95.288C199.094 95.664 199.038 96.024 198.934 96.368C198.83 96.704 198.674 97.004 198.466 97.268C198.266 97.524 198.006 97.732 197.686 97.892C197.374 98.044 196.994 98.12 196.546 98.12C196.082 98.12 195.69 98.036 195.37 97.868C195.058 97.692 194.802 97.476 194.602 97.22V100.004C194.602 100.084 194.578 100.148 194.53 100.196C194.482 100.252 194.414 100.28 194.326 100.28H193.75ZM196.294 97.148C196.71 97.148 197.034 97.06 197.266 96.884C197.506 96.7 197.678 96.464 197.782 96.176C197.886 95.88 197.946 95.564 197.962 95.228C197.97 94.996 197.97 94.764 197.962 94.532C197.946 94.196 197.886 93.884 197.782 93.596C197.678 93.3 197.506 93.064 197.266 92.888C197.034 92.704 196.71 92.612 196.294 92.612C195.902 92.612 195.582 92.704 195.334 92.888C195.094 93.072 194.914 93.308 194.794 93.596C194.682 93.876 194.618 94.164 194.602 94.46C194.594 94.588 194.59 94.74 194.59 94.916C194.59 95.092 194.594 95.248 194.602 95.384C194.61 95.664 194.674 95.94 194.794 96.212C194.922 96.484 195.11 96.708 195.358 96.884C195.606 97.06 195.918 97.148 196.294 97.148ZM202.976 98C202.528 98 202.164 97.916 201.884 97.748C201.604 97.572 201.4 97.328 201.272 97.016C201.144 96.696 201.08 96.32 201.08 95.888V92.72H200.144C200.064 92.72 199.996 92.696 199.94 92.648C199.892 92.592 199.868 92.524 199.868 92.444V92.036C199.868 91.956 199.892 91.892 199.94 91.844C199.996 91.788 200.064 91.76 200.144 91.76H201.08V89.756C201.08 89.676 201.104 89.612 201.152 89.564C201.208 89.508 201.276 89.48 201.356 89.48H201.92C202 89.48 202.064 89.508 202.112 89.564C202.168 89.612 202.196 89.676 202.196 89.756V91.76H203.684C203.764 91.76 203.828 91.788 203.876 91.844C203.932 91.892 203.96 91.956 203.96 92.036V92.444C203.96 92.524 203.932 92.592 203.876 92.648C203.828 92.696 203.764 92.72 203.684 92.72H202.196V95.804C202.196 96.18 202.26 96.476 202.388 96.692C202.516 96.908 202.744 97.016 203.072 97.016H203.804C203.884 97.016 203.948 97.044 203.996 97.1C204.052 97.148 204.08 97.212 204.08 97.292V97.724C204.08 97.804 204.052 97.872 203.996 97.928C203.948 97.976 203.884 98 203.804 98H202.976ZM207.784 98.12C207.176 98.12 206.668 98.004 206.26 97.772C205.852 97.54 205.54 97.22 205.324 96.812C205.108 96.396 204.988 95.924 204.964 95.396C204.956 95.26 204.952 95.088 204.952 94.88C204.952 94.664 204.956 94.492 204.964 94.364C204.988 93.828 205.108 93.356 205.324 92.948C205.548 92.54 205.864 92.22 206.272 91.988C206.68 91.756 207.184 91.64 207.784 91.64C208.384 91.64 208.888 91.756 209.296 91.988C209.704 92.22 210.016 92.54 210.232 92.948C210.456 93.356 210.58 93.828 210.604 94.364C210.612 94.492 210.616 94.664 210.616 94.88C210.616 95.088 210.612 95.26 210.604 95.396C210.58 95.924 210.46 96.396 210.244 96.812C210.028 97.22 209.716 97.54 209.308 97.772C208.9 98.004 208.392 98.12 207.784 98.12ZM207.784 97.196C208.28 97.196 208.676 97.04 208.972 96.728C209.268 96.408 209.428 95.944 209.452 95.336C209.46 95.216 209.464 95.064 209.464 94.88C209.464 94.696 209.46 94.544 209.452 94.424C209.428 93.816 209.268 93.356 208.972 93.044C208.676 92.724 208.28 92.564 207.784 92.564C207.288 92.564 206.888 92.724 206.584 93.044C206.288 93.356 206.132 93.816 206.116 94.424C206.108 94.544 206.104 94.696 206.104 94.88C206.104 95.064 206.108 95.216 206.116 95.336C206.132 95.944 206.288 96.408 206.584 96.728C206.888 97.04 207.288 97.196 207.784 97.196ZM214.674 100.64C214.13 100.64 213.682 100.568 213.33 100.424C212.986 100.28 212.714 100.104 212.514 99.896C212.322 99.696 212.182 99.492 212.094 99.284C212.014 99.084 211.97 98.924 211.962 98.804C211.954 98.724 211.978 98.656 212.034 98.6C212.098 98.544 212.166 98.516 212.238 98.516H212.814C212.886 98.516 212.946 98.532 212.994 98.564C213.042 98.596 213.082 98.664 213.114 98.768C213.162 98.888 213.234 99.02 213.33 99.164C213.426 99.316 213.574 99.444 213.774 99.548C213.974 99.66 214.254 99.716 214.614 99.716C214.99 99.716 215.306 99.664 215.562 99.56C215.818 99.464 216.01 99.288 216.138 99.032C216.274 98.784 216.342 98.44 216.342 98V97.184C216.15 97.432 215.898 97.64 215.586 97.808C215.274 97.968 214.882 98.048 214.41 98.048C213.962 98.048 213.578 97.972 213.258 97.82C212.938 97.66 212.674 97.448 212.466 97.184C212.266 96.912 212.114 96.604 212.01 96.26C211.914 95.916 211.858 95.556 211.842 95.18C211.834 94.956 211.834 94.736 211.842 94.52C211.858 94.144 211.914 93.784 212.01 93.44C212.114 93.096 212.266 92.788 212.466 92.516C212.674 92.244 212.938 92.032 213.258 91.88C213.578 91.72 213.962 91.64 214.41 91.64C214.89 91.64 215.286 91.732 215.598 91.916C215.918 92.092 216.178 92.308 216.378 92.564V92.048C216.378 91.968 216.402 91.9 216.45 91.844C216.506 91.788 216.574 91.76 216.654 91.76H217.206C217.286 91.76 217.354 91.788 217.41 91.844C217.466 91.9 217.494 91.968 217.494 92.048V97.868C217.494 98.404 217.402 98.88 217.218 99.296C217.042 99.712 216.746 100.04 216.33 100.28C215.922 100.52 215.37 100.64 214.674 100.64ZM214.65 97.088C215.05 97.088 215.37 96.996 215.61 96.812C215.858 96.628 216.038 96.396 216.15 96.116C216.27 95.836 216.334 95.552 216.342 95.264C216.35 95.152 216.354 95.016 216.354 94.856C216.354 94.688 216.35 94.548 216.342 94.436C216.334 94.148 216.27 93.864 216.15 93.584C216.038 93.304 215.858 93.072 215.61 92.888C215.37 92.704 215.05 92.612 214.65 92.612C214.25 92.612 213.93 92.704 213.69 92.888C213.45 93.064 213.278 93.3 213.174 93.596C213.07 93.884 213.01 94.196 212.994 94.532C212.986 94.74 212.986 94.952 212.994 95.168C213.01 95.504 213.07 95.82 213.174 96.116C213.278 96.404 213.45 96.64 213.69 96.824C213.93 97 214.25 97.088 214.65 97.088ZM219.555 98C219.475 98 219.407 97.976 219.351 97.928C219.303 97.872 219.279 97.804 219.279 97.724V92.048C219.279 91.968 219.303 91.9 219.351 91.844C219.407 91.788 219.475 91.76 219.555 91.76H220.107C220.187 91.76 220.255 91.788 220.311 91.844C220.367 91.9 220.395 91.968 220.395 92.048V92.576C220.555 92.304 220.775 92.1 221.055 91.964C221.335 91.828 221.671 91.76 222.063 91.76H222.543C222.623 91.76 222.687 91.788 222.735 91.844C222.783 91.892 222.807 91.956 222.807 92.036V92.528C222.807 92.608 222.783 92.672 222.735 92.72C222.687 92.768 222.623 92.792 222.543 92.792H221.823C221.391 92.792 221.051 92.92 220.803 93.176C220.555 93.424 220.431 93.764 220.431 94.196V97.724C220.431 97.804 220.403 97.872 220.347 97.928C220.291 97.976 220.223 98 220.143 98H219.555ZM225.483 98.12C225.083 98.12 224.719 98.04 224.391 97.88C224.063 97.72 223.799 97.504 223.599 97.232C223.399 96.96 223.299 96.652 223.299 96.308C223.299 95.756 223.523 95.316 223.971 94.988C224.419 94.66 225.003 94.444 225.723 94.34L227.511 94.088V93.74C227.511 93.356 227.399 93.056 227.175 92.84C226.959 92.624 226.603 92.516 226.107 92.516C225.747 92.516 225.455 92.588 225.231 92.732C225.015 92.876 224.863 93.06 224.775 93.284C224.727 93.404 224.643 93.464 224.523 93.464H223.983C223.895 93.464 223.827 93.44 223.779 93.392C223.739 93.336 223.719 93.272 223.719 93.2C223.719 93.08 223.763 92.932 223.851 92.756C223.947 92.58 224.091 92.408 224.283 92.24C224.475 92.072 224.719 91.932 225.015 91.82C225.319 91.7 225.687 91.64 226.119 91.64C226.599 91.64 227.003 91.704 227.331 91.832C227.659 91.952 227.915 92.116 228.099 92.324C228.291 92.532 228.427 92.768 228.507 93.032C228.595 93.296 228.639 93.564 228.639 93.836V97.724C228.639 97.804 228.611 97.872 228.555 97.928C228.507 97.976 228.443 98 228.363 98H227.811C227.723 98 227.655 97.976 227.607 97.928C227.559 97.872 227.535 97.804 227.535 97.724V97.208C227.431 97.352 227.291 97.496 227.115 97.64C226.939 97.776 226.719 97.892 226.455 97.988C226.191 98.076 225.867 98.12 225.483 98.12ZM225.735 97.22C226.063 97.22 226.363 97.152 226.635 97.016C226.907 96.872 227.119 96.652 227.271 96.356C227.431 96.06 227.511 95.688 227.511 95.24V94.904L226.119 95.108C225.551 95.188 225.123 95.324 224.835 95.516C224.547 95.7 224.403 95.936 224.403 96.224C224.403 96.448 224.467 96.636 224.595 96.788C224.731 96.932 224.899 97.04 225.099 97.112C225.307 97.184 225.519 97.22 225.735 97.22ZM231.206 98C231.126 98 231.058 97.976 231.002 97.928C230.954 97.872 230.93 97.804 230.93 97.724V92.72H229.91C229.83 92.72 229.762 92.696 229.706 92.648C229.658 92.592 229.634 92.524 229.634 92.444V92.036C229.634 91.956 229.658 91.892 229.706 91.844C229.762 91.788 229.83 91.76 229.91 91.76H230.93V91.16C230.93 90.752 230.998 90.396 231.134 90.092C231.27 89.78 231.486 89.54 231.782 89.372C232.086 89.204 232.49 89.12 232.994 89.12H233.714C233.794 89.12 233.858 89.148 233.906 89.204C233.954 89.252 233.978 89.316 233.978 89.396V89.804C233.978 89.884 233.954 89.952 233.906 90.008C233.858 90.056 233.794 90.08 233.714 90.08H233.018C232.642 90.08 232.386 90.18 232.25 90.38C232.114 90.572 232.046 90.852 232.046 91.22V91.76H233.594C233.674 91.76 233.738 91.788 233.786 91.844C233.834 91.892 233.858 91.956 233.858 92.036V92.444C233.858 92.524 233.834 92.592 233.786 92.648C233.738 92.696 233.674 92.72 233.594 92.72H232.046V97.724C232.046 97.804 232.018 97.872 231.962 97.928C231.914 97.976 231.85 98 231.77 98H231.206ZM236.581 98.12C236.181 98.12 235.817 98.04 235.489 97.88C235.161 97.72 234.897 97.504 234.697 97.232C234.497 96.96 234.397 96.652 234.397 96.308C234.397 95.756 234.621 95.316 235.069 94.988C235.517 94.66 236.101 94.444 236.821 94.34L238.609 94.088V93.74C238.609 93.356 238.497 93.056 238.273 92.84C238.057 92.624 237.701 92.516 237.205 92.516C236.845 92.516 236.553 92.588 236.329 92.732C236.113 92.876 235.961 93.06 235.873 93.284C235.825 93.404 235.741 93.464 235.621 93.464H235.081C234.993 93.464 234.925 93.44 234.877 93.392C234.837 93.336 234.817 93.272 234.817 93.2C234.817 93.08 234.861 92.932 234.949 92.756C235.045 92.58 235.189 92.408 235.381 92.24C235.573 92.072 235.817 91.932 236.113 91.82C236.417 91.7 236.785 91.64 237.217 91.64C237.697 91.64 238.101 91.704 238.429 91.832C238.757 91.952 239.013 92.116 239.197 92.324C239.389 92.532 239.525 92.768 239.605 93.032C239.693 93.296 239.737 93.564 239.737 93.836V97.724C239.737 97.804 239.709 97.872 239.653 97.928C239.605 97.976 239.541 98 239.461 98H238.909C238.821 98 238.753 97.976 238.705 97.928C238.657 97.872 238.633 97.804 238.633 97.724V97.208C238.529 97.352 238.389 97.496 238.213 97.64C238.037 97.776 237.817 97.892 237.553 97.988C237.289 98.076 236.965 98.12 236.581 98.12ZM236.833 97.22C237.161 97.22 237.461 97.152 237.733 97.016C238.005 96.872 238.217 96.652 238.369 96.356C238.529 96.06 238.609 95.688 238.609 95.24V94.904L237.217 95.108C236.649 95.188 236.221 95.324 235.933 95.516C235.645 95.7 235.501 95.936 235.501 96.224C235.501 96.448 235.565 96.636 235.693 96.788C235.829 96.932 235.997 97.04 236.197 97.112C236.405 97.184 236.617 97.22 236.833 97.22ZM241.738 98C241.658 98 241.59 97.976 241.534 97.928C241.486 97.872 241.462 97.804 241.462 97.724V92.036C241.462 91.956 241.486 91.892 241.534 91.844C241.59 91.788 241.658 91.76 241.738 91.76H242.302C242.382 91.76 242.446 91.788 242.494 91.844C242.55 91.892 242.578 91.956 242.578 92.036V92.564C242.786 92.292 243.046 92.072 243.358 91.904C243.678 91.728 244.086 91.64 244.582 91.64C245.102 91.64 245.542 91.756 245.902 91.988C246.27 92.212 246.546 92.528 246.73 92.936C246.914 93.336 247.006 93.804 247.006 94.34V97.724C247.006 97.804 246.982 97.872 246.934 97.928C246.886 97.976 246.822 98 246.742 98H246.142C246.062 98 245.994 97.976 245.938 97.928C245.89 97.872 245.866 97.804 245.866 97.724V94.4C245.866 93.84 245.73 93.404 245.458 93.092C245.186 92.772 244.786 92.612 244.258 92.612C243.762 92.612 243.362 92.772 243.058 93.092C242.762 93.404 242.614 93.84 242.614 94.4V97.724C242.614 97.804 242.586 97.872 242.53 97.928C242.482 97.976 242.418 98 242.338 98H241.738ZM251.02 98.12C250.58 98.12 250.2 98.044 249.88 97.892C249.56 97.732 249.296 97.52 249.088 97.256C248.888 96.984 248.736 96.676 248.632 96.332C248.536 95.988 248.48 95.624 248.464 95.24C248.456 95.112 248.452 94.992 248.452 94.88C248.452 94.768 248.456 94.648 248.464 94.52C248.48 94.144 248.536 93.784 248.632 93.44C248.736 93.096 248.888 92.788 249.088 92.516C249.296 92.244 249.56 92.032 249.88 91.88C250.2 91.72 250.58 91.64 251.02 91.64C251.492 91.64 251.884 91.724 252.196 91.892C252.508 92.06 252.764 92.268 252.964 92.516V89.756C252.964 89.676 252.988 89.612 253.036 89.564C253.092 89.508 253.16 89.48 253.24 89.48H253.816C253.896 89.48 253.96 89.508 254.008 89.564C254.064 89.612 254.092 89.676 254.092 89.756V97.724C254.092 97.804 254.064 97.872 254.008 97.928C253.96 97.976 253.896 98 253.816 98H253.276C253.188 98 253.12 97.976 253.072 97.928C253.024 97.872 253 97.804 253 97.724V97.22C252.8 97.476 252.54 97.692 252.22 97.868C251.9 98.036 251.5 98.12 251.02 98.12ZM251.272 97.148C251.672 97.148 251.992 97.056 252.232 96.872C252.472 96.688 252.652 96.456 252.772 96.176C252.892 95.888 252.956 95.596 252.964 95.3C252.972 95.172 252.976 95.02 252.976 94.844C252.976 94.66 252.972 94.504 252.964 94.376C252.956 94.096 252.888 93.82 252.76 93.548C252.64 93.276 252.456 93.052 252.208 92.876C251.968 92.7 251.656 92.612 251.272 92.612C250.864 92.612 250.54 92.704 250.3 92.888C250.06 93.064 249.888 93.3 249.784 93.596C249.68 93.884 249.62 94.196 249.604 94.532C249.596 94.764 249.596 94.996 249.604 95.228C249.62 95.564 249.68 95.88 249.784 96.176C249.888 96.464 250.06 96.7 250.3 96.884C250.54 97.06 250.864 97.148 251.272 97.148ZM258.432 98.12C257.824 98.12 257.316 98.004 256.908 97.772C256.5 97.54 256.188 97.22 255.972 96.812C255.756 96.396 255.636 95.924 255.612 95.396C255.604 95.26 255.6 95.088 255.6 94.88C255.6 94.664 255.604 94.492 255.612 94.364C255.636 93.828 255.756 93.356 255.972 92.948C256.196 92.54 256.512 92.22 256.92 91.988C257.328 91.756 257.832 91.64 258.432 91.64C259.032 91.64 259.536 91.756 259.944 91.988C260.352 92.22 260.664 92.54 260.88 92.948C261.104 93.356 261.228 93.828 261.252 94.364C261.26 94.492 261.264 94.664 261.264 94.88C261.264 95.088 261.26 95.26 261.252 95.396C261.228 95.924 261.108 96.396 260.892 96.812C260.676 97.22 260.364 97.54 259.956 97.772C259.548 98.004 259.04 98.12 258.432 98.12ZM258.432 97.196C258.928 97.196 259.324 97.04 259.62 96.728C259.916 96.408 260.076 95.944 260.1 95.336C260.108 95.216 260.112 95.064 260.112 94.88C260.112 94.696 260.108 94.544 260.1 94.424C260.076 93.816 259.916 93.356 259.62 93.044C259.324 92.724 258.928 92.564 258.432 92.564C257.936 92.564 257.536 92.724 257.232 93.044C256.936 93.356 256.78 93.816 256.764 94.424C256.756 94.544 256.752 94.696 256.752 94.88C256.752 95.064 256.756 95.216 256.764 95.336C256.78 95.944 256.936 96.408 257.232 96.728C257.536 97.04 257.936 97.196 258.432 97.196ZM267.868 98.12C267.42 98.12 267.036 98.064 266.716 97.952C266.396 97.84 266.136 97.704 265.936 97.544C265.736 97.384 265.584 97.224 265.48 97.064C265.384 96.904 265.332 96.776 265.324 96.68C265.316 96.592 265.344 96.524 265.408 96.476C265.472 96.428 265.536 96.404 265.6 96.404H266.128C266.176 96.404 266.212 96.412 266.236 96.428C266.268 96.436 266.308 96.468 266.356 96.524C266.46 96.636 266.576 96.748 266.704 96.86C266.832 96.972 266.988 97.064 267.172 97.136C267.364 97.208 267.6 97.244 267.88 97.244C268.288 97.244 268.624 97.168 268.888 97.016C269.152 96.856 269.284 96.624 269.284 96.32C269.284 96.12 269.228 95.96 269.116 95.84C269.012 95.72 268.82 95.612 268.54 95.516C268.268 95.42 267.892 95.32 267.412 95.216C266.932 95.104 266.552 94.968 266.272 94.808C265.992 94.64 265.792 94.444 265.672 94.22C265.552 93.988 265.492 93.728 265.492 93.44C265.492 93.144 265.58 92.86 265.756 92.588C265.932 92.308 266.188 92.08 266.524 91.904C266.868 91.728 267.296 91.64 267.808 91.64C268.224 91.64 268.58 91.692 268.876 91.796C269.172 91.9 269.416 92.032 269.608 92.192C269.8 92.344 269.944 92.496 270.04 92.648C270.136 92.8 270.188 92.928 270.196 93.032C270.204 93.112 270.18 93.18 270.124 93.236C270.068 93.284 270.004 93.308 269.932 93.308H269.428C269.372 93.308 269.324 93.296 269.284 93.272C269.252 93.248 269.22 93.22 269.188 93.188C269.108 93.084 269.012 92.98 268.9 92.876C268.796 92.772 268.656 92.688 268.48 92.624C268.312 92.552 268.088 92.516 267.808 92.516C267.408 92.516 267.108 92.6 266.908 92.768C266.708 92.936 266.608 93.148 266.608 93.404C266.608 93.556 266.652 93.692 266.74 93.812C266.828 93.932 266.996 94.04 267.244 94.136C267.492 94.232 267.86 94.336 268.348 94.448C268.876 94.552 269.292 94.692 269.596 94.868C269.9 95.044 270.116 95.248 270.244 95.48C270.372 95.712 270.436 95.98 270.436 96.284C270.436 96.62 270.336 96.928 270.136 97.208C269.944 97.488 269.656 97.712 269.272 97.88C268.896 98.04 268.428 98.12 267.868 98.12ZM274.31 98.12C273.486 98.12 272.83 97.868 272.342 97.364C271.854 96.852 271.586 96.156 271.538 95.276C271.53 95.172 271.526 95.04 271.526 94.88C271.526 94.712 271.53 94.576 271.538 94.472C271.57 93.904 271.702 93.408 271.934 92.984C272.166 92.552 272.482 92.22 272.882 91.988C273.29 91.756 273.766 91.64 274.31 91.64C274.918 91.64 275.426 91.768 275.834 92.024C276.25 92.28 276.566 92.644 276.782 93.116C276.998 93.588 277.105 94.14 277.105 94.772V94.976C277.105 95.064 277.078 95.132 277.022 95.18C276.974 95.228 276.91 95.252 276.83 95.252H272.678C272.678 95.26 272.678 95.276 272.678 95.3C272.678 95.324 272.678 95.344 272.678 95.36C272.694 95.688 272.766 95.996 272.894 96.284C273.022 96.564 273.206 96.792 273.446 96.968C273.686 97.144 273.974 97.232 274.31 97.232C274.598 97.232 274.838 97.188 275.03 97.1C275.222 97.012 275.378 96.916 275.498 96.812C275.618 96.7 275.698 96.616 275.738 96.56C275.81 96.456 275.866 96.396 275.906 96.38C275.946 96.356 276.01 96.344 276.098 96.344H276.674C276.754 96.344 276.818 96.368 276.866 96.416C276.922 96.456 276.946 96.516 276.938 96.596C276.93 96.716 276.866 96.864 276.746 97.04C276.626 97.208 276.454 97.376 276.23 97.544C276.006 97.712 275.734 97.852 275.414 97.964C275.094 98.068 274.726 98.12 274.31 98.12ZM272.678 94.424H275.966V94.388C275.966 94.028 275.898 93.708 275.762 93.428C275.634 93.148 275.446 92.928 275.198 92.768C274.95 92.6 274.654 92.516 274.31 92.516C273.966 92.516 273.67 92.6 273.422 92.768C273.182 92.928 272.998 93.148 272.87 93.428C272.742 93.708 272.678 94.028 272.678 94.388V94.424ZM280.868 98.12C280.356 98.12 279.92 98.008 279.56 97.784C279.208 97.552 278.94 97.232 278.756 96.824C278.572 96.416 278.48 95.948 278.48 95.42V92.036C278.48 91.956 278.504 91.892 278.552 91.844C278.608 91.788 278.676 91.76 278.756 91.76H279.356C279.436 91.76 279.5 91.788 279.548 91.844C279.604 91.892 279.632 91.956 279.632 92.036V95.36C279.632 96.552 280.152 97.148 281.192 97.148C281.688 97.148 282.084 96.992 282.38 96.68C282.684 96.36 282.836 95.92 282.836 95.36V92.036C282.836 91.956 282.86 91.892 282.908 91.844C282.964 91.788 283.032 91.76 283.112 91.76H283.7C283.788 91.76 283.856 91.788 283.904 91.844C283.952 91.892 283.976 91.956 283.976 92.036V97.724C283.976 97.804 283.952 97.872 283.904 97.928C283.856 97.976 283.788 98 283.7 98H283.148C283.068 98 283 97.976 282.944 97.928C282.896 97.872 282.872 97.804 282.872 97.724V97.196C282.656 97.476 282.392 97.7 282.08 97.868C281.776 98.036 281.372 98.12 280.868 98.12ZM291.221 98.12C290.653 98.12 290.161 98.012 289.745 97.796C289.337 97.572 289.021 97.256 288.797 96.848C288.573 96.432 288.453 95.936 288.437 95.36C288.429 95.24 288.425 95.08 288.425 94.88C288.425 94.68 288.429 94.52 288.437 94.4C288.453 93.824 288.573 93.332 288.797 92.924C289.021 92.508 289.337 92.192 289.745 91.976C290.161 91.752 290.653 91.64 291.221 91.64C291.685 91.64 292.081 91.704 292.409 91.832C292.745 91.96 293.021 92.124 293.237 92.324C293.453 92.524 293.613 92.74 293.717 92.972C293.829 93.204 293.889 93.424 293.897 93.632C293.905 93.712 293.881 93.776 293.825 93.824C293.769 93.872 293.701 93.896 293.621 93.896H293.045C292.965 93.896 292.905 93.88 292.865 93.848C292.825 93.808 292.785 93.744 292.745 93.656C292.601 93.264 292.405 92.988 292.157 92.828C291.909 92.668 291.601 92.588 291.233 92.588C290.753 92.588 290.361 92.736 290.057 93.032C289.761 93.328 289.601 93.804 289.576 94.46C289.569 94.748 289.569 95.028 289.576 95.3C289.601 95.964 289.761 96.444 290.057 96.74C290.361 97.028 290.753 97.172 291.233 97.172C291.601 97.172 291.909 97.092 292.157 96.932C292.405 96.772 292.601 96.496 292.745 96.104C292.785 96.016 292.825 95.956 292.865 95.924C292.905 95.884 292.965 95.864 293.045 95.864H293.621C293.701 95.864 293.769 95.888 293.825 95.936C293.881 95.984 293.905 96.048 293.897 96.128C293.889 96.296 293.853 96.468 293.789 96.644C293.725 96.82 293.621 97 293.477 97.184C293.341 97.36 293.169 97.52 292.961 97.664C292.753 97.8 292.501 97.912 292.205 98C291.917 98.08 291.589 98.12 291.221 98.12ZM297.062 98.12C296.662 98.12 296.298 98.04 295.97 97.88C295.642 97.72 295.378 97.504 295.178 97.232C294.978 96.96 294.878 96.652 294.878 96.308C294.878 95.756 295.102 95.316 295.55 94.988C295.998 94.66 296.582 94.444 297.302 94.34L299.09 94.088V93.74C299.09 93.356 298.978 93.056 298.754 92.84C298.538 92.624 298.182 92.516 297.686 92.516C297.326 92.516 297.034 92.588 296.81 92.732C296.594 92.876 296.442 93.06 296.354 93.284C296.306 93.404 296.222 93.464 296.102 93.464H295.562C295.474 93.464 295.406 93.44 295.358 93.392C295.318 93.336 295.298 93.272 295.298 93.2C295.298 93.08 295.342 92.932 295.43 92.756C295.526 92.58 295.67 92.408 295.862 92.24C296.054 92.072 296.298 91.932 296.594 91.82C296.898 91.7 297.266 91.64 297.698 91.64C298.178 91.64 298.582 91.704 298.91 91.832C299.238 91.952 299.494 92.116 299.678 92.324C299.87 92.532 300.006 92.768 300.086 93.032C300.174 93.296 300.218 93.564 300.218 93.836V97.724C300.218 97.804 300.19 97.872 300.134 97.928C300.086 97.976 300.022 98 299.942 98H299.39C299.302 98 299.234 97.976 299.186 97.928C299.138 97.872 299.114 97.804 299.114 97.724V97.208C299.01 97.352 298.87 97.496 298.694 97.64C298.518 97.776 298.298 97.892 298.034 97.988C297.77 98.076 297.446 98.12 297.062 98.12ZM297.314 97.22C297.642 97.22 297.942 97.152 298.214 97.016C298.486 96.872 298.698 96.652 298.85 96.356C299.01 96.06 299.09 95.688 299.09 95.24V94.904L297.698 95.108C297.13 95.188 296.702 95.324 296.414 95.516C296.126 95.7 295.982 95.936 295.982 96.224C295.982 96.448 296.046 96.636 296.174 96.788C296.31 96.932 296.478 97.04 296.678 97.112C296.886 97.184 297.098 97.22 297.314 97.22ZM302.219 98C302.139 98 302.071 97.976 302.015 97.928C301.967 97.872 301.943 97.804 301.943 97.724V92.048C301.943 91.968 301.967 91.9 302.015 91.844C302.071 91.788 302.139 91.76 302.219 91.76H302.771C302.851 91.76 302.919 91.788 302.975 91.844C303.031 91.9 303.059 91.968 303.059 92.048V92.576C303.219 92.304 303.439 92.1 303.719 91.964C303.999 91.828 304.335 91.76 304.727 91.76H305.207C305.287 91.76 305.351 91.788 305.399 91.844C305.447 91.892 305.471 91.956 305.471 92.036V92.528C305.471 92.608 305.447 92.672 305.399 92.72C305.351 92.768 305.287 92.792 305.207 92.792H304.487C304.055 92.792 303.715 92.92 303.467 93.176C303.219 93.424 303.095 93.764 303.095 94.196V97.724C303.095 97.804 303.067 97.872 303.011 97.928C302.955 97.976 302.887 98 302.807 98H302.219ZM308.937 98C308.489 98 308.125 97.916 307.845 97.748C307.565 97.572 307.361 97.328 307.233 97.016C307.105 96.696 307.041 96.32 307.041 95.888V92.72H306.105C306.025 92.72 305.957 92.696 305.901 92.648C305.853 92.592 305.829 92.524 305.829 92.444V92.036C305.829 91.956 305.853 91.892 305.901 91.844C305.957 91.788 306.025 91.76 306.105 91.76H307.041V89.756C307.041 89.676 307.065 89.612 307.113 89.564C307.169 89.508 307.237 89.48 307.317 89.48H307.881C307.961 89.48 308.025 89.508 308.073 89.564C308.129 89.612 308.157 89.676 308.157 89.756V91.76H309.645C309.725 91.76 309.789 91.788 309.837 91.844C309.893 91.892 309.921 91.956 309.921 92.036V92.444C309.921 92.524 309.893 92.592 309.837 92.648C309.789 92.696 309.725 92.72 309.645 92.72H308.157V95.804C308.157 96.18 308.221 96.476 308.349 96.692C308.477 96.908 308.705 97.016 309.033 97.016H309.765C309.845 97.016 309.909 97.044 309.957 97.1C310.013 97.148 310.041 97.212 310.041 97.292V97.724C310.041 97.804 310.013 97.872 309.957 97.928C309.909 97.976 309.845 98 309.765 98H308.937ZM312.929 98.12C312.529 98.12 312.165 98.04 311.837 97.88C311.509 97.72 311.245 97.504 311.045 97.232C310.845 96.96 310.745 96.652 310.745 96.308C310.745 95.756 310.969 95.316 311.417 94.988C311.865 94.66 312.449 94.444 313.169 94.34L314.957 94.088V93.74C314.957 93.356 314.845 93.056 314.621 92.84C314.405 92.624 314.049 92.516 313.553 92.516C313.193 92.516 312.901 92.588 312.677 92.732C312.461 92.876 312.309 93.06 312.221 93.284C312.173 93.404 312.089 93.464 311.969 93.464H311.429C311.341 93.464 311.273 93.44 311.225 93.392C311.185 93.336 311.165 93.272 311.165 93.2C311.165 93.08 311.209 92.932 311.297 92.756C311.393 92.58 311.537 92.408 311.729 92.24C311.921 92.072 312.165 91.932 312.461 91.82C312.765 91.7 313.133 91.64 313.565 91.64C314.045 91.64 314.449 91.704 314.777 91.832C315.105 91.952 315.361 92.116 315.545 92.324C315.737 92.532 315.873 92.768 315.953 93.032C316.041 93.296 316.085 93.564 316.085 93.836V97.724C316.085 97.804 316.057 97.872 316.001 97.928C315.953 97.976 315.889 98 315.809 98H315.257C315.169 98 315.101 97.976 315.053 97.928C315.005 97.872 314.981 97.804 314.981 97.724V97.208C314.877 97.352 314.737 97.496 314.561 97.64C314.385 97.776 314.165 97.892 313.901 97.988C313.637 98.076 313.313 98.12 312.929 98.12ZM313.181 97.22C313.509 97.22 313.809 97.152 314.081 97.016C314.353 96.872 314.565 96.652 314.717 96.356C314.877 96.06 314.957 95.688 314.957 95.24V94.904L313.565 95.108C312.997 95.188 312.569 95.324 312.281 95.516C311.993 95.7 311.849 95.936 311.849 96.224C311.849 96.448 311.913 96.636 312.041 96.788C312.177 96.932 312.345 97.04 312.545 97.112C312.753 97.184 312.965 97.22 313.181 97.22ZM314.189 90.92C313.989 90.92 313.829 90.888 313.709 90.824C313.589 90.752 313.477 90.684 313.373 90.62C313.277 90.548 313.165 90.512 313.037 90.512C312.949 90.512 312.881 90.54 312.833 90.596C312.793 90.652 312.753 90.712 312.713 90.776C312.681 90.832 312.621 90.86 312.533 90.86H312.149C312.093 90.86 312.045 90.84 312.005 90.8C311.965 90.76 311.945 90.716 311.945 90.668C311.945 90.548 311.965 90.428 312.005 90.308C312.053 90.18 312.121 90.064 312.209 89.96C312.297 89.848 312.401 89.76 312.521 89.696C312.649 89.632 312.789 89.6 312.941 89.6C313.149 89.6 313.313 89.636 313.433 89.708C313.553 89.772 313.665 89.84 313.769 89.912C313.873 89.976 313.981 90.008 314.093 90.008C314.197 90.008 314.269 89.98 314.309 89.924C314.349 89.86 314.385 89.8 314.417 89.744C314.457 89.68 314.521 89.648 314.609 89.648H314.993C315.057 89.648 315.105 89.668 315.137 89.708C315.177 89.748 315.197 89.796 315.197 89.852C315.197 89.964 315.173 90.084 315.125 90.212C315.085 90.34 315.021 90.46 314.933 90.572C314.845 90.676 314.737 90.76 314.609 90.824C314.489 90.888 314.349 90.92 314.189 90.92ZM320.366 98.12C319.758 98.12 319.25 98.004 318.842 97.772C318.434 97.54 318.122 97.22 317.906 96.812C317.69 96.396 317.57 95.924 317.546 95.396C317.538 95.26 317.534 95.088 317.534 94.88C317.534 94.664 317.538 94.492 317.546 94.364C317.57 93.828 317.69 93.356 317.906 92.948C318.13 92.54 318.446 92.22 318.854 91.988C319.262 91.756 319.766 91.64 320.366 91.64C320.966 91.64 321.47 91.756 321.878 91.988C322.286 92.22 322.598 92.54 322.814 92.948C323.038 93.356 323.162 93.828 323.186 94.364C323.194 94.492 323.198 94.664 323.198 94.88C323.198 95.088 323.194 95.26 323.186 95.396C323.162 95.924 323.042 96.396 322.826 96.812C322.61 97.22 322.298 97.54 321.89 97.772C321.482 98.004 320.974 98.12 320.366 98.12ZM320.366 97.196C320.862 97.196 321.258 97.04 321.554 96.728C321.85 96.408 322.01 95.944 322.034 95.336C322.042 95.216 322.046 95.064 322.046 94.88C322.046 94.696 322.042 94.544 322.034 94.424C322.01 93.816 321.85 93.356 321.554 93.044C321.258 92.724 320.862 92.564 320.366 92.564C319.87 92.564 319.47 92.724 319.166 93.044C318.87 93.356 318.714 93.816 318.698 94.424C318.69 94.544 318.686 94.696 318.686 94.88C318.686 95.064 318.69 95.216 318.698 95.336C318.714 95.944 318.87 96.408 319.166 96.728C319.47 97.04 319.87 97.196 320.366 97.196Z" fill="#282828"/>
</g>
<defs>
<clipPath id="clip0_37_28">
<rect width="500" height="150" fill="white"/>
</clipPath>
</defs>
</svg>
